<svg id="Layer_1" data-name="Layer 1" xmlns="http://www.w3.org/2000/svg" viewBox="0 0 1080 1080"><path d="M545.43,187.61Q646.14,246,746.87,304.32c28.94,16.77,57.8,33.69,86.9,50.19,10.06,5.71,14.48,13.54,14.46,25.14q-.29,160.32,0,320.64c0,11.68-4.44,19.34-14.42,25.1Q693.67,806.33,553.73,887.68c-9.58,5.57-18.2,5.47-27.73-.07Q386,806.3,245.85,725.38c-10-5.79-14.35-13.62-14.32-25.19q.28-160.32,0-320.64c0-11.63,4.51-19.32,14.51-25.09q139.91-80.71,279.62-161.78l8.75-5.07ZM785.86,374.84c-3-1.86-4.92-3.08-6.87-4.21Q663,303.41,547.17,236.11c-5.18-3-8.89-3.3-14.23-.18q-116.07,67.65-232.4,134.89c-1.88,1.09-4.23,1.68-5.39,3.92,1.28,2.21,3.61,2.84,5.52,3.93q116.46,67,232.9,134c4.92,2.84,8.32,2.51,13-.2Q646.84,454.57,747.31,397C759.79,389.8,772.27,382.64,785.86,374.84ZM273.19,669.21c3.41-1.86,5.83-3.12,8.2-4.47l161-92.27a67.52,67.52,0,0,1,6.66-3.56,20.33,20.33,0,0,1,27.78,12.42c3.46,10.34-.75,19.34-12.34,26q-81.66,46.88-163.34,93.73c-2.09,1.2-4.67,1.86-6.29,4.8l223.28,129.4c1.7-2.21,1.09-4.09,1.09-5.81q.06-135.9.16-271.79c0-4.72-1.86-6.82-5.56-8.94Q396.65,481.6,279.54,414.3c-1.9-1.09-3.57-2.93-6.35-2.5ZM785.77,705.4c-3.06-1.89-5.12-3.24-7.25-4.46Q698,654.77,617.58,608.59A53.59,53.59,0,0,1,609,603a19.16,19.16,0,0,1-6.66-19.17c1.56-7.78,6.28-13.24,13.88-15.69,7.29-2.35,13.82,0,20.26,3.66q81.31,46.77,162.78,93.29c2.28,1.3,4.29,3.53,7.35,3.12V411.69c-2.84-.13-4.53,1.61-6.45,2.71Q683,481.62,565.82,548.77c-4.27,2.44-5.35,5.18-5.34,9.75q.18,135.19.13,270.39c0,1.91-.76,4,1.14,6.27Z"/><path d="M187.55,782.23a6.53,6.53,0,0,0,1.29-1.4c5.23-10.66,13.68-15.51,23.54-13.48,10.15,2.09,16.44,10.47,16.49,22.27.08,18.57.17,37.14-.08,55.71-.06,4.59,1.4,5.77,5.83,5.72,17.88-.22,35.76-.14,53.64-.08,14.08,0,23.23,8.29,23.16,20.68S302,892.17,288,892.2c-24.53.07-49.07-.34-73.59.17-13,.28-22.21-4-26.84-16.54Z"/><path d="M296.29,187.61c.27.35.46.84.82,1,11.28,5.66,16.13,13.94,13.94,23.86-2.28,10.35-10.66,16.38-23,16.41-17.42.05-34.84.29-52.24-.13-5.94-.15-7.14,1.76-7,7.3.36,16.95.14,33.91.13,50.86,0,14.9-5.39,23.11-16.7,25.51q-15.42,3.27-24.64-16.08V204.13c2.53-7.81,8-12.89,15.14-16.52Z"/><path d="M877.15,187.61c11.82,5.58,15.6,15,15.28,27.81-.63,25.21,0,50.45-.26,75.67-.14,15.77-14.44,25.88-28.24,20.14-8.73-3.63-12.95-10.58-13-20,0-18.58-.26-37.16.12-55.73.12-5.62-1.69-6.79-6.92-6.7-17.43.31-34.86.15-52.29.11-12.41,0-20.79-6-23.09-16.39-2.2-9.93,2.65-18.22,13.94-23.89.35-.17.55-.66.82-1Z"/><path d="M892.24,829.52c0,13.29.09,26.59,0,39.88-.12,14.28-8.42,22.72-22.67,22.78q-39.19.2-78.39,0c-13.46-.05-22.68-8.54-22.74-20.55-.07-12.39,9.09-20.62,23.16-20.67,17.88-.06,35.76-.15,53.64.08,4.43.06,5.89-1.14,5.83-5.72-.25-18.34-.15-36.68-.09-55,0-14.1,8.22-23.26,20.6-23.26s20.59,9.24,20.67,23.27C892.3,803.38,892.24,816.45,892.24,829.52Z"/></svg>