<svg id="Layer_1" data-name="Layer 1" xmlns="http://www.w3.org/2000/svg" viewBox="0 0 1080 1080"><path d="M930.55,339.58q0,57.38,0,114.76c-.07,39.53-26.8,68.15-66.22,68.5q-116.76,1-233.55,0c-39.15-.3-67.34-28.7-67.61-67.89q-.79-116.26,0-232.55c.27-40,28.65-66.89,68.82-66.92q115.26-.07,230.54,0c40.85,0,68,27.27,68,68.29Q930.64,281.68,930.55,339.58ZM747.37,200.74c-37.92,0-75.84-.07-113.76,0-17.62,0-25.3,7.4-25.33,25q-.21,112.74,0,225.49c0,18.69,7.78,26.49,26.4,26.52q112.74.21,225.49,0c17.69,0,25.1-7.63,25.11-25.2q.12-113.74,0-227.5c0-18.11-6.15-24.25-24.15-24.3C823.2,200.67,785.29,200.74,747.37,200.74Z"/><path d="M155.5,746.81c0-38.59-.06-77.19,0-115.78.08-38.8,26.89-67.44,65.86-67.8q117.27-1.08,234.56,0c38.68.36,66.62,28.68,66.92,67.47q.92,116.77,0,233.56c-.34,39.43-28.94,66.24-68.42,66.28q-115.77.09-231.55,0c-39.62,0-67.18-27.53-67.37-66.93V746.81Zm45.24-.36c0,37.92-.06,75.83,0,113.75,0,18.89,6,25.06,24.42,25.07q113.74.12,227.49,0c17.18,0,25-7.28,25.06-24.2q.28-113.74,0-227.49c-.05-17.44-7.95-25.24-25.52-25.28q-113.25-.27-226.49,0c-17.38,0-24.92,8-25,25.44C200.68,671.29,200.74,708.87,200.74,746.45Z"/><path d="M155.5,339.25c0-39.26-.1-78.52,0-117.78.13-38.18,27.91-65.89,66.2-65.94q116.27-.15,232.55,0c39.83,0,68.36,27.32,68.62,67.22q.76,116.26,0,232.55c-.3,39.26-28.51,67.32-67.82,67.6q-116.26.83-232.54,0c-39.7-.27-66.94-29-67-68.88Q155.42,396.63,155.5,339.25Zm45.24-1.39c0,38.25-.07,76.5,0,114.75,0,17.23,7.25,25.08,24.13,25.12q113.75.3,227.48,0c17.23,0,25.32-8.23,25.36-25.56q.27-113.24,0-226.48c0-17.66-7.61-24.92-25.33-24.93q-113.74-.11-227.48,0c-17.87,0-24.13,6.36-24.18,24.35C200.67,262.7,200.74,300.28,200.74,337.86Z"/><path d="M930.54,747.56c0,38.93.1,77.85,0,116.78-.12,38.32-27.77,66.11-66,66.17q-116.78.16-233.55,0c-38.66,0-67.39-27.09-67.74-66q-1.07-117.27,0-234.55c.37-39.16,29-66.65,68.53-66.86q115.77-.6,231.54,0c39.77.25,67.15,28.87,67.22,68.66Q930.64,689.68,930.54,747.56Zm-45.23-.11q0-56.37,0-112.74c0-19.09-7-26.43-25.86-26.46q-112.23-.15-224.47,0c-18.55,0-26.65,8-26.68,26.33q-.21,112.74,0,225.48c0,17.76,7.57,25.19,25.1,25.2q113.75.12,227.49,0c18.09,0,24.36-6.21,24.41-24.08C885.38,823.28,885.3,785.37,885.31,747.45Z"/></svg>