<svg id="Layer_1" data-name="Layer 1" xmlns="http://www.w3.org/2000/svg" viewBox="0 0 1080 1080"><path d="M95.47,878.3V202.85c4.11-20.55,11.1-39.9,23.38-57.12,22-30.9,52.37-48.38,89.19-55.45H883.49c1.7.41,3.38.91,5.09,1.24,63,12.25,108.08,66.23,108.11,130.28q.16,319.55,0,639.09c-.06,71.46-59.12,130.52-130.57,130.58q-320.43.27-640.85.06c-27.58,0-52.41-8.62-74.75-24.44C119.7,945.28,102.5,914.9,95.47,878.3Zm450.31,59.12q155.22,0,310.44,0c34.67,0,62.08-12.91,78.21-45.17,6.61-13.21,8.1-27.48,8.12-41.88q.18-142.47.06-284.94,0-167.53,0-335.06c0-20-3.91-39-16.55-55.33-18.06-23.36-42.78-31.31-71.16-31.3q-302.08.06-604.17,0a323,323,0,0,0-32.45,1.33c-34.89,3.54-64.5,33.07-68,67.81-1.08,10.83-1.35,21.62-1.35,32.45q0,302.08,0,604.17c0,20.62,3.67,40.18,16.83,57,17.75,22.68,41.83,30.92,69.57,30.93Q390.56,937.44,545.78,937.42Z"/><path d="M254.86,540.56c0-58,.16-116-.18-174-.05-8.79,2.46-11.57,11.4-11.5,49.22.39,98.45-.17,147.67.29,44.74.42,77.79,21.45,96.43,61.63,18.34,39.53,12.66,77.66-14.35,112.15-9.11,11.64-9.11,11.33,0,23,27,34.49,32.67,72.63,14.32,112.15-18.65,40.17-51.71,61.19-96.45,61.61-49.22.45-98.45-.1-147.67.29-9,.07-11.42-2.78-11.37-11.53C255,656.59,254.86,598.58,254.86,540.56ZM367.8,513.5c15.41-.89,34.45,1.46,53.4-1.35,25.6-3.78,44.52-25.48,44.23-51s-18.75-47.5-43.93-50.21c-35.26-3.79-70.73-.88-106.11-1.51-5.65-.1-6.42,3.85-6.41,8.39,0,29,.12,57.95-.06,86.92,0,6.38,2.34,8.95,8.78,8.85C333.21,513.33,348.72,513.5,367.8,513.5Zm.36,158.31c15.8-.89,35.14,1.49,54.38-1.49,26.38-4.09,45.62-29.29,42.28-55.68-3.64-28.81-23.91-46.44-55.08-46.88-30.43-.44-60.87,0-91.31-.2-6.57,0-9.59,1.94-9.53,9q.35,43,0,86c-.06,6.81,2.42,9.43,9.26,9.29C333.67,671.6,349.18,671.81,368.16,671.81Z"/><path d="M733.49,620.4q-46.15,0-92.31,0c-9.66,0-10.33,1.22-5.76,9.81,26.26,49.37,95.29,55.4,129.83,10.83,6.23-8,10.59-8.48,18.36-3.23a280.53,280.53,0,0,0,28.12,16.31c6.79,3.52,6.89,7.07,2.72,13-29.78,41.94-70.53,62.34-121.52,58.34-48.19-3.79-84.65-28.5-106.82-71.55-42.63-82.81,10.19-181,103-192.69,76.19-9.63,146.95,52.26,147.57,129.09.06,7-.31,14.09.11,21.09s-2.4,9.18-9.19,9.13C796.2,620.25,764.85,620.39,733.49,620.4Zm-29.74-54.12c21.39,0,42.79-.21,64.19.11,7.26.11,9.22-1.93,5.59-8.48-15.06-27.17-38.23-42.23-69.13-42.33-31.27-.1-54.72,15-69.87,42.54-3.14,5.72-2.29,8.36,5,8.26C661,566.09,682.35,566.27,703.75,566.28Z"/><path d="M704.05,409.32c-31.94,0-63.88-.21-95.81.15-8,.1-10.91-2.49-10.51-10.54.54-11.1.55-22.28,0-33.38-.41-8.14,2.63-10.52,10.58-10.48,58.3.26,116.6.07,174.9.2,8.42,0,19-3.53,24.71,1.74,6.23,5.75,1.71,16.66,2.3,25.29.41,5.83-.28,11.74.15,17.57.55,7.3-2.46,9.63-9.63,9.57C768.5,409.16,736.27,409.32,704.05,409.32Z"/></svg>