<svg id="Layer_1" data-name="Layer 1" xmlns="http://www.w3.org/2000/svg" viewBox="0 0 1080 1080"><path d="M804.08,74.6c26.37,6.75,45.88,21.6,55.81,47.58,7.27,19,6.46,37.93-1.76,56.42-2.32,5.23-1.53,6.56,4.27,6.91,43.25,2.65,69.89,31.12,69.89,74.47q0,211.95,0,423.9C932.28,729,903.15,758,858,758q-122.81.06-245.6,0c-11.91,0-11.87,0-9.12,11.52,5,20.7,10,41.38,14.69,62.15,1.34,6,4.1,8.32,10.36,8.08,11.2-.45,22.43-.28,33.64-.08,29.46.53,51.71,22.52,51.68,51.84,0,8.26,2.6,10.62,10.58,10.28,13.43-.58,26.91-.25,40.36-.12,11.62.11,19.58,7.4,19.46,17.53s-8,17.22-19.79,17.22q-222.47.06-444.93,0c-11.85,0-19.72-6.88-20-17-.27-10.36,7.9-17.66,20.1-17.74,14-.1,28-.2,42.05,0,5.5.1,7.95-1.31,8.17-7.46,1.23-35,21.72-54.57,56.61-54.61,9.53,0,19.08-.38,28.59.12,6.71.35,9.32-2.43,10.71-8.7,4.74-21.33,9.66-42.63,15.19-63.76,2.12-8.1-.5-9.46-7.89-9.42-45.41.25-90.83.12-136.25.12-37.57,0-75.14.07-112.71,0-43.38-.11-72.84-29.62-72.85-73.08q-.08-213.21,0-426.42c0-43.06,30-73.06,73-73.09q219.53-.1,439,.18c9.26,0,14.74-2.73,19.68-10.57,12.86-20.38,27.22-39.82,40-60.26C735.4,94.5,752.32,80.65,775.48,74.6ZM541.79,722.08c104.86,0,209.72-.51,314.57.35,27.47.22,41.66-16.94,40.21-40-1.19-19-.24-38.11-.24-57.18,0-13.81,0-13.82-13.66-13.82q-251.91,0-503.82,0a73,73,0,0,1-12.56-.61c-9.91-1.75-15.52-8.67-15.25-18.08.27-9.24,6.57-15.88,16.49-17a96.89,96.89,0,0,1,10.92-.23l506.35,0c11.49,0,11.52,0,11.52-11.67q0-42.47,0-85,0-111,0-222c0-22.35-13.28-35.34-35.69-35.46-8.42,0-16.84.32-25.23-.11-6.21-.32-10.29,1.86-14.26,6.72Q751.22,313.68,680.8,399c-5.34,6.44-7,11.93-5.08,20.32C688.27,474.94,650.1,526.65,591,524.32c-14.28-.56-28.59-.39-42.89-.48-17.57-.12-32.78,5.78-46.12,17.31-12.23,10.58-26.58,6.43-30.62-9.11-8.35-32.13-13.44-64.56-9.48-98.07,6.68-56.43,48.26-95.41,105.34-97.4,5.33-.18,8.73-1.87,11.7-6.36,22.28-33.66,44.79-67.17,67.18-100.76,1.34-2,4.06-4,2.9-6.56-1.25-2.72-4.53-1.48-6.89-1.49q-210.71-.08-421.4,0c-19.79,0-33.61,13.52-33.63,33.17-.15,104,0,208-.21,312,0,7.17,2.69,9.18,9.41,9q18.06-.55,36.16,0c12.72.4,20.29,9.17,18.59,20.78-1.27,8.72-8.65,14.65-19.56,14.94-11.77.32-23.56.41-35.32,0-6.91-.23-9.39,2.17-9.28,9.18.33,23,0,46,.21,69,.15,14.79,9,26.51,22.64,31.15,5.46,1.85,11.09,1.39,16.67,1.39Q384.09,722.11,541.79,722.08ZM828.94,148.75c.09-17.4-10.68-32.5-26.9-37.66-16.66-5.31-33.83.25-44.24,15.63-31.74,46.89-63,94.07-94.69,141-3.41,5-2.25,7.6,2.26,10.8,12.1,8.61,24.11,17.37,35.77,26.57,5.17,4.07,8.22,3.53,12.29-1.47q53.34-65.55,107-130.82A36.21,36.21,0,0,0,828.94,148.75ZM568.5,488.07c12.24,0,22,.27,31.83-.06,15.5-.51,27-8,35.15-21,8.62-13.82,8-28.69,4.83-43.84a17.09,17.09,0,0,0-7.16-10.86c-14.06-10.17-28.43-20-41.71-31.13-9.84-8.24-19.65-10.94-32.27-8.39-24.46,5-44.38,15.69-54.68,39.54-11.47,26.55-9.27,54.13-5,81.75.55,3.55,1.83,4.89,5.58,3.18C526.1,487.6,548.44,487.15,568.5,488.07ZM541.7,901.66h12.61c38.66,0,77.33-.17,116,.14,7.35.06,9.41-2.63,8.54-9.4-1.4-10.87-7.29-16.69-18.31-16.7q-118.93-.12-237.87,0c-10.46,0-16.19,5.14-17.92,15.14-1.59,9.2-.28,10.8,9.2,10.81Q477.82,901.68,541.7,901.66Zm-.78-62c11.76,0,23.53-.16,35.28.07,5.43.1,6.85-1.8,5.56-7q-8.41-34.24-16.36-68.59c-1-4.22-2.89-6.19-7.4-6.1q-16,.3-31.92,0c-4.69-.08-7.15,1.67-8.23,6.34-5.3,22.9-10.68,45.78-16.33,68.59-1.41,5.69.78,6.87,5.79,6.79C518.51,839.52,529.72,839.64,540.92,839.64Zm107.64-460.5c2.56.32,3.63-1.09,4.69-2.37,9.8-11.89,19.48-23.87,29.39-35.67,2.64-3.14,1.37-4.72-1.29-6.68-12.19-8.95-24.38-17.91-36.42-27.08-4.08-3.11-6.6-2.63-9.39,1.72C628,320.84,620.22,332.52,612.19,344c-3.29,4.69-1.94,7.37,2.15,10.32,10,7.21,19.81,14.68,29.73,22C645.63,377.45,647.35,378.38,648.56,379.14Z"/><path d="M318.45,593a17.58,17.58,0,0,1-17.16,18.06c-9.4.12-17.5-8.13-17.53-17.83a17.35,17.35,0,1,1,34.69-.23Z"/></svg>