<svg id="Layer_1" data-name="Layer 1" xmlns="http://www.w3.org/2000/svg" viewBox="0 0 1080 1080"><path d="M286.8,533A247,247,0,0,1,534.24,285.74c136.77.06,247.14,110.71,247,247.65-.13,136.72-110.88,247-247.88,246.79C397.08,780,286.8,669.42,286.8,533ZM524.05,724.75c102.68,7,200.44-74.63,202.44-189.26,1.74-99.74-76.84-193-190.38-195C436,338.79,343.66,418.16,341.59,530.44,339.69,633.35,421.79,720.91,524.05,724.75Z"/><path d="M713,270.76c.24-40.18,33.94-73.39,74-72.9,40.24.5,73.29,33.81,73.34,73.91,0,40.88-33.69,73.79-75.23,73.39C744.7,344.78,712.77,311.81,713,270.76Zm91.74.63c-.17-10.39-8.13-18.07-18.62-18A18,18,0,0,0,768.06,272a18.32,18.32,0,0,0,18.75,18.12A18,18,0,0,0,804.75,271.39Z"/><path d="M864.4,982.38H201.6A116.07,116.07,0,0,1,85.66,866.45V200.57A116.07,116.07,0,0,1,201.6,84.64H864.4A116.07,116.07,0,0,1,980.34,200.57V866.45A116.07,116.07,0,0,1,864.4,982.38ZM201.6,130.64a70,70,0,0,0-69.94,69.93V866.45a70,70,0,0,0,69.94,69.93H864.4a70,70,0,0,0,69.94-69.93V200.57a70,70,0,0,0-69.94-69.93Z"/></svg>