<svg id="Layer_1" data-name="Layer 1" xmlns="http://www.w3.org/2000/svg" viewBox="0 0 1080 1080"><path d="M932.35,114.17c-8.86-5-18.82-7.79-29.35-10.62H180.42c-29.56,6.82-50.79,21.6-64.88,45.18-8.92,14.91-13.26,30.13-13.24,46.49V463.07q0,213.38.06,426.73c0,49.86,42.18,92,92,92,201.9.1,422.63.1,694.55,0,40.84,0,77.41-28.05,89-68.16.76-2.65,1.46-5.3,2.17-8l.59-2.19V181C973.64,150.44,957.83,128.56,932.35,114.17ZM933.41,878c0,38.2-17.93,56-56.46,56l-439.71,0H353.5q-74.08,0-148.16,0c-36.55,0-55.11-18.41-55.11-54.7V205.9c0-37.07,18.19-55.11,55.57-55.11H878.27c37.1,0,55.14,18.17,55.14,55.57Q933.44,542.17,933.41,878Z"/><path d="M822.86,809.33v15.84q-49.3,0-98.6,0h-.37v-.06q0-28.4,0-56.77c0-40.57.05-82.51-.13-123.77-.06-17.3-.17-38.82-5-59.52-8.83-38.17-29.89-56.86-66.21-58.81-39.26-2.11-67.66,13.78-82,46-10.07,22.59-11.57,46.3-11.7,68.57-.24,42.65-.22,86-.17,127.94q0,28.06,0,56.14v.32h-.13c-10,0-20,0-30.06,0-22,0-44.74-.06-67.17.15.2-124.64.2-251,0-375.67,33.56.33,66.32.33,97.43,0-.29,8.32-.22,16.67-.13,25.49,0,4.19.06,8.53.06,13.09v35.53l21.45-28.33c7.83-10.33,13.07-17,19.43-22.61,19.32-17,42.8-26.88,69.81-29.42,27.28-2.54,51.4-.43,73.78,6.47,39.27,12.11,62.37,39.36,72.68,85.79a289,289,0,0,1,6.88,62Q822.91,703.49,822.86,809.33Z"/><path d="M361.51,594l0,85.85V825.17h-.24q-15.37,0-30.78,0c-22.88,0-46.52-.06-69.86.18.2-124.89.2-251.27,0-375.7,33.87.33,67.82.33,101,0C361.46,497.76,361.49,546.67,361.51,594Z"/><path d="M373.84,312.05a60.21,60.21,0,0,1-17.78,43.11,61.4,61.4,0,0,1-43.55,17.48h-.17a59.85,59.85,0,0,1-42.94-17.82C258.11,343.31,252,327.73,252,311a59.61,59.61,0,0,1,17.5-42.46c11.5-11.42,27.16-17.7,44.09-17.7h.3C347.55,251,373.88,277.84,373.84,312.05Z"/></svg>