<svg id="Layer_1" data-name="Layer 1" xmlns="http://www.w3.org/2000/svg" viewBox="0 0 1080 1080"><path d="M286.92,943.72c-29.58-6.92-52-23-65.24-50.88-6.1-12.86-8-26.42-7.93-40.56.14-111.64-.25-223.28.33-334.91.13-24.19-2.37-47.43-10.14-70.36-5.89-17.38-10.39-35.24-15.5-52.89-15.26-52.69,10.09-99.89,62.61-115.18q226.83-66,453.8-131.52c14.6-4.22,28.92-10,44.24-10.94,44.33-2.74,80,21.75,93.25,64.36,9.1,29.33,17.37,58.92,25.76,88.46,4,14.13-.52,21.62-15.11,25.84q-169.43,49.08-338.86,98.1L356.05,459a4.31,4.31,0,0,0-2.69,2.27h8.93q252.57,0,505.12,0a81.25,81.25,0,0,1,11.79.46c10.44,1.55,15.66,7.41,16.37,18,.18,2.62.09,5.25.09,7.88,0,120.3-.62,240.61.29,360.91.38,50.16-31.35,86.12-71,94.26a12.35,12.35,0,0,0-2.16.93H611.59c-4.37-3-8.61-6.07-9.86-11.72-2.57-11.55,5.18-20.29,18.49-20.31q89-.12,178.08,0a90.8,90.8,0,0,0,22.63-2.5c24.92-6.35,40.89-27.54,41-54.84.16-66.19.06-132.38.06-198.58,0-13,0-13-12.82-13H258.92c-1.57,0-3.16.13-4.72,0-5.75-.53-7.82,1.9-7.8,7.75.15,67.5-.11,135,.21,202.51.11,23,9.71,41.1,30.62,52.19,10,5.33,21.06,6.36,32.11,6.39,51.48.13,103,.06,154.45.06,9.19,0,18.38-.06,27.58.08,7.68.12,12.89,4,15.47,11.2s.05,12.83-5.18,17.7c-1.15,1.07-2.36,2.06-3.55,3.09Zm-69.37-579a57.85,57.85,0,0,0,2.19,17.9c6.65,22.92,13.46,45.8,19.88,68.79,1.3,4.67,3.28,6,7.77,4.65q62.33-18.14,124.7-36.1c5.28-1.51,4.79-3.33,1.36-6.62Q321.21,363.16,269.14,312.8c-2.63-2.55-5.1-2.95-8.47-2.17C235.24,316.46,217.7,338.37,217.55,364.71ZM659.26,195.38c3.6,3.94,6.4,7.36,9.55,10.4q48.16,46.49,96.41,92.89c3.11,3,5.94,5.62,10.95,4.11,16.82-5.1,33.71-10,50.62-14.75,4.26-1.2,5.37-3.33,4.13-7.51C823.44,255.38,816.8,230,808.5,205.1c-8-24.06-32.79-38.66-57.82-35.07-20.32,2.91-39.47,10.61-59.2,15.92C680.7,188.85,670.05,192.21,659.26,195.38ZM315.29,495c-20.49,0-41,.11-61.47-.08-5.35-.06-7.45,1.66-7.42,7.24q.27,50,0,100.07c0,5,1.7,7,6.85,7q28.75-.27,57.52,0c4.49,0,7.26-1.62,9.48-5.5q29.24-50.9,58.77-101.62c3.75-6.42,1.48-7.26-4.65-7.19C354.69,495.12,335,495,315.29,495ZM794.12,609.13c19.7,0,39.39-.18,59.08.11,6.23.09,8.93-1.55,8.87-8.34-.27-32.56-.22-65.12,0-97.68,0-6-1.68-8.47-8-8.36-18.37.32-36.76.23-55.14,0-4.71,0-7.82,1.37-10.23,5.58q-29.18,50.91-58.68,101.63c-3.33,5.72-1.77,7.15,4.31,7.09C754.21,609,774.17,609.13,794.12,609.13Zm-413.64-333c-.63.17-2.65.7-4.66,1.28l-65,18.82c-8.55,2.47-8.67,2.7-2.35,8.77q51.11,49,102.2,98.1c3.24,3.13,6.12,4,10.44,2.67,22.6-6.78,45.24-13.46,68-19.8,6-1.68,7-3.16,2.18-7.74q-51.43-49.26-102.65-98.77C386.74,277.62,384.94,275.6,380.48,276.1Zm274.76,61.58c.43-.12,1.45-.39,2.45-.68,23.17-6.69,46.33-13.44,69.53-20,5.79-1.65,5-3.86,1.42-7.28q-51.92-49.89-103.72-99.91c-2.49-2.4-4.82-3.3-8.41-2.23q-35.43,10.53-71,20.6c-5.09,1.44-5.25,3-1.56,6.5Q596,284.38,648,334.25C649.85,336.05,651.58,338.2,655.24,337.68ZM535.85,372.17c1.79-.44,3.59-.81,5.35-1.32q32.85-9.51,65.69-19.08c8-2.34,8.16-2.81,2.24-8.52q-51-49.19-101.95-98.31c-3.19-3.09-6.14-4-10.53-2.66-22.86,6.8-45.8,13.35-68.76,19.84-5.16,1.46-6.8,2.88-2.06,7.38q52.14,49.65,104,99.56C531.53,370.66,533.08,372.64,535.85,372.17Zm109.59,237c12.08,0,24.16-.11,36.23.07,4.16.06,6.75-1.37,8.85-5q29.58-51.6,59.47-103c2.85-4.91,1.77-6.27-3.66-6.24q-35.85.21-71.69,0c-4.52,0-7.25,1.71-9.46,5.54q-29.64,51.56-59.53,103c-2.73,4.7-1.33,5.85,3.55,5.78C621.28,609,633.36,609.13,645.44,609.12Zm-247.1,0c11.56,0,23.12-.23,34.66.1,5.38.16,8.65-1.63,11.36-6.37q28.86-50.64,58.2-101c3.5-6,1.51-7-4.32-7-23.37.15-46.74.19-70.11,0-5.22-.05-8.2,1.9-10.46,6.43-2.81,5.63-6.21,11-9.36,16.42q-24.26,41.92-48.5,83.86c-4.3,7.46-4.19,7.53,4.66,7.55C375.76,609.15,387.05,609.13,398.34,609.13ZM587.81,495c-12.08,0-24.16.12-36.24-.06-4.32-.06-7.35,1-9.66,5.07q-29.52,51.62-59.4,103c-3,5.15-1.37,6.2,3.8,6.17q35.83-.18,71.68,0c4.11,0,6.8-1.29,8.92-5q29.8-51.91,59.93-103.64c2.91-5,1-5.68-3.58-5.63C611.45,495.06,599.63,495,587.81,495Z"/><path d="M548.55,943.72c-4.44-2.91-8.44-6.2-9.79-11.7a16.43,16.43,0,0,1,8.36-18.53A16.15,16.15,0,0,1,567,917.58a15.88,15.88,0,0,1-.11,20.84,60,60,0,0,1-5.72,5.3Z"/><path d="M664.06,775.71c-.2,7.83-5.08,12.26-11.29,15.84q-37.53,21.63-75,43.32l-55.92,32.3c-16.88,9.75-29,2.82-29-16.72q-.06-75.24,0-150.47c0-19.23,11.73-26.34,28.36-16.83,44.21,25.29,88.25,50.87,132.39,76.28C660,763.09,664.21,768,664.06,775.71Zm-138.53.23c0,14.67.11,29.35-.06,44-.05,5,1.06,6.11,5.72,3.39q38.7-22.54,77.63-44.71c4.31-2.45,4.91-3.88.22-6.56q-38.55-22-76.91-44.38c-5.46-3.17-6.72-1.28-6.66,4.23C525.65,746.6,525.53,761.27,525.53,775.94Z"/></svg>