<svg id="Layer_1" data-name="Layer 1" xmlns="http://www.w3.org/2000/svg" xmlns:xlink="http://www.w3.org/1999/xlink" viewBox="0 0 2048 2048"><defs><style>.cls-1{fill:#191b20;}.cls-2{fill:url(#linear-gradient);}.cls-3{fill:url(#linear-gradient-2);}</style><linearGradient id="linear-gradient" x1="541.15" y1="84.19" x2="975.64" y2="2131.67" gradientUnits="userSpaceOnUse"><stop offset="0" stop-color="#b2b2b2"/><stop offset="1"/></linearGradient><linearGradient id="linear-gradient-2" x1="916.4" y1="1024" x2="1912.09" y2="1024" xlink:href="#linear-gradient"/></defs><polygon class="cls-1" points="415.16 656.18 402.15 669.19 135.91 402.96 135.91 376.93 415.16 656.18"/><polygon class="cls-1" points="901.2 929.77 1718.28 112.66 1694.7 112.66 889.39 917.97 901.2 929.77"/><polygon class="cls-2" points="1518.28 1935.34 918.36 1935.34 392.51 1409.49 135.91 1666.08 135.91 402.96 402.15 669.19 415.16 656.18 958.68 112.66 1288.11 112.66 1182.62 218.14 579.87 820.88 566.86 833.9 522.14 878.63 491.83 908.92 566.39 983.46 1518.28 1935.34"/><polygon class="cls-1" points="1578.86 1935.34 1518.28 1935.34 566.39 983.46 491.83 908.92 522.14 878.63 566.86 833.9 579.87 820.88 1182.62 218.14 1288.11 112.66 1437.17 112.66 654.43 895.42 641.39 908.44 596.68 953.17 1578.86 1935.34"/><polygon class="cls-1" points="1912.09 165.97 1912.09 183.01 1832.23 262.87 1155.64 939.45 1147.12 930.92 1832.23 245.83 1912.09 165.97"/><polygon class="cls-3" points="1832.23 245.83 1147.12 930.92 1155.64 939.45 1907.3 1691.09 1907.3 1935.34 916.4 944.44 1038.51 822.31 1748.16 112.66 1912.09 112.66 1912.09 165.97 1832.23 245.83"/></svg>